<?xml version="1.0" encoding="utf-8"?>
<!-- Generator: Adobe Illustrator 23.1.1, SVG Export Plug-In . SVG Version: 6.00 Build 0)  -->
<svg version="1.1" id="Layer_1" xmlns="http://www.w3.org/2000/svg" xmlns:xlink="http://www.w3.org/1999/xlink" x="0px" y="0px"
	 viewBox="0 0 261 198" style="enable-background:new 0 0 261 198;" xml:space="preserve">
<style type="text/css">
	.st0{display:none;fill-rule:evenodd;clip-rule:evenodd;fill:#2A0042;}
	.st1{display:none;}
	.st2{display:inline;fill-rule:evenodd;clip-rule:evenodd;fill:#FFC9F5;}
	.st3{display:inline;fill-rule:evenodd;clip-rule:evenodd;fill:#FC62BC;}
	.st4{display:inline;fill-rule:evenodd;clip-rule:evenodd;fill:#FF4297;}
	.st5{display:inline;fill-rule:evenodd;clip-rule:evenodd;fill:#C20071;}
	.st6{display:inline;fill-rule:evenodd;clip-rule:evenodd;fill:#690033;}
	.st7{display:inline;fill-rule:evenodd;clip-rule:evenodd;fill:#FFFFFF;}
	.st8{display:inline;fill-rule:evenodd;clip-rule:evenodd;fill:#FF1C8E;}
	.st9{display:inline;fill-rule:evenodd;clip-rule:evenodd;fill:#910055;}
	.st10{fill-rule:evenodd;clip-rule:evenodd;fill:#D8F0F8;}
	.st11{fill-rule:evenodd;clip-rule:evenodd;fill:#85B2D2;}
	.st12{fill-rule:evenodd;clip-rule:evenodd;fill:#639DC8;}
	.st13{fill-rule:evenodd;clip-rule:evenodd;fill:#503A68;}
	.st14{fill-rule:evenodd;clip-rule:evenodd;fill:#484A87;}
	.st15{fill-rule:evenodd;clip-rule:evenodd;fill:#FFFFFF;}
	.st16{fill-rule:evenodd;clip-rule:evenodd;fill:#9DDBEE;}
	.st17{fill:#85B2D2;}
	.st18{fill:#46335F;}
	.st19{fill:#3E4B7A;}
	.st20{fill:#646EAE;}
	.st21{fill:#9DDBEE;}
	.st22{fill:#639DC8;}
	.st23{fill:#422A59;}
	.st24{fill:#1A1939;}
	.st25{fill:#D8F0F8;}
	.st26{fill:#484A87;}
	.st27{fill-rule:evenodd;clip-rule:evenodd;fill:#646EAE;}
	.st28{fill-rule:evenodd;clip-rule:evenodd;fill:#422A59;}
	.st29{fill-rule:evenodd;clip-rule:evenodd;fill:#1A1939;}
</style>
<rect x="-709" y="-571" class="st0" width="1400" height="980"/>
<g class="st1">
	<polygon class="st2" points="81.1,-249.9 63.5,-209.9 157.2,-154 129.1,-203.9 	"/>
	<polygon class="st3" points="81.1,-249.9 209.4,-266.7 224.8,-241.5 129.1,-203.9 	"/>
	<polygon class="st4" points="129.1,-203.9 202.4,-213.4 224.8,-241.5 	"/>
	<polygon class="st5" points="129.1,-203.9 157.2,-154 202.4,-213.4 	"/>
	<polygon class="st5" points="202.4,-213.4 225.2,-219.3 224.8,-241.5 	"/>
	<polygon class="st6" points="202.4,-213.4 157.2,-154 225.2,-219.3 	"/>
	<polygon class="st6" points="63.5,-209.9 125.3,-151.9 157.2,-154 	"/>
	<polygon class="st5" points="32.7,-267.4 60.4,-240.7 77.5,-241.7 81.1,-249.9 94,-251.5 	"/>
	<polygon class="st4" points="32.7,-267.4 53.4,-290.2 96.1,-264.3 94,-251.5 	"/>
	<polygon class="st5" points="96.1,-264.3 143,-289.5 148.5,-282.2 108.3,-253.4 94,-251.5 	"/>
	<polygon class="st6" points="148.5,-282.2 147.2,-274.9 123.8,-255.5 108.3,-253.4 	"/>
	<polygon class="st2" points="53.4,-290.2 49.8,-298.7 32.7,-267.4 	"/>
	<polygon class="st3" points="49.8,-298.7 102.6,-309.6 143,-289.5 96.1,-264.3 53.4,-290.2 	"/>
	<polygon class="st7" points="129.1,-203.9 178.1,-225.8 209.8,-235.5 182.7,-223.2 	"/>
</g>
<g class="st1">
	<polygon class="st2" points="362.3,-312.2 317.8,-236.6 346.2,-244.3 	"/>
	<polygon class="st3" points="362.3,-312.2 398.5,-248.8 346.2,-244.3 	"/>
	<polygon class="st5" points="346.2,-244.3 355.9,-173.9 404.3,-172.6 398.5,-248.8 	"/>
	<polygon class="st4" points="362.3,-312.2 446.3,-292.8 489.5,-236.6 398.5,-248.8 	"/>
	<polygon class="st6" points="398.5,-248.8 404.3,-172.6 470.8,-197.8 489.5,-236.6 	"/>
	<polygon class="st4" points="355.9,-173.9 317.8,-236.6 346.2,-244.3 	"/>
	<polygon class="st3" points="355.9,-173.9 401.4,-153.9 404.3,-172.6 	"/>
	<polygon class="st5" points="404.3,-172.6 401.4,-153.9 470.8,-197.8 	"/>
	<polygon class="st3" points="453.1,-283.9 501.8,-329 542.4,-295.4 526.3,-238.2 473.4,-257.6 	"/>
	<polygon class="st5" points="473.4,-257.6 489.5,-236.6 482.7,-222.4 511.5,-184.6 526.3,-238.2 	"/>
	<polygon class="st5" points="542.4,-295.4 552.8,-246.3 526.3,-238.2 	"/>
	<polygon class="st6" points="526.3,-238.2 511.5,-184.6 552.8,-246.3 	"/>
	<polygon class="st3" points="511.5,-184.6 477.6,-211.9 482.7,-222.4 	"/>
	<polygon class="st5" points="501.8,-329 551.1,-298 542.4,-295.4 	"/>
	<polygon class="st4" points="542.4,-295.4 552.8,-246.3 557.3,-260.8 551.1,-298 	"/>
	<polygon class="st2" points="501.8,-329 439.4,-294.3 446.3,-292.8 453.1,-283.9 	"/>
	<polygon class="st4" points="458.2,-155.5 459.2,-140 485,-132.5 	"/>
	<polygon class="st2" points="458.2,-155.5 452.4,-172.6 459.2,-140 	"/>
	<polygon class="st3" points="452.4,-172.6 470.5,-172 471.4,-159.3 458.2,-155.5 	"/>
	<polygon class="st5" points="458.2,-155.5 485,-132.5 471.4,-159.3 	"/>
	<polygon class="st5" points="470.5,-172 491.1,-152.9 471.4,-159.3 	"/>
	<polygon class="st6" points="471.4,-159.3 485,-132.5 491.1,-152.9 	"/>
	<polygon class="st7" points="370.2,-298.5 380.6,-275.9 390.1,-263.5 380.2,-286.3 	"/>
</g>
<g class="st1">
	<polygon class="st2" points="-465.9,-288.7 -507.6,-233.5 -437.1,-205.6 	"/>
	<polygon class="st4" points="-465.9,-288.7 -364.1,-264.8 -437.1,-205.6 	"/>
	<polygon class="st6" points="-437.1,-205.6 -416.7,-146 -377,-182.2 -364.1,-264.8 	"/>
	<polygon class="st3" points="-437.1,-205.6 -507.6,-233.5 -460.4,-169.8 -416.7,-146 	"/>
	<polygon class="st2" points="-419,-277.7 -381.5,-315.5 -383.6,-269.4 	"/>
	<polygon class="st5" points="-381.5,-315.5 -338.2,-299.6 -383.6,-269.4 	"/>
	<polygon class="st8" points="-338.2,-299.6 -360.1,-211.1 -374.4,-198.5 -364.1,-264.8 -383.6,-269.4 	"/>
	<polygon class="st9" points="-353.9,-236.3 -333.3,-244.4 -371,-169.8 -384.2,-175.7 -377,-182.2 -374.4,-198.5 -360.1,-211.1 	"/>
	<polygon class="st6" points="-333.3,-244.4 -345.6,-198.7 -371,-169.8 	"/>
	<polygon class="st6" points="-481.8,-198.6 -535,-239.5 -496.2,-271.8 -490.4,-256.2 -507.6,-233.5 	"/>
	<polygon class="st5" points="-535,-239.5 -532.5,-289.2 -496.2,-271.8 	"/>
	<polygon class="st2" points="-532.5,-289.2 -538.9,-252.5 -535,-239.5 	"/>
	<polygon class="st8" points="-532.5,-289.2 -493.2,-290.7 -496.2,-271.8 	"/>
	<polygon class="st9" points="-493.2,-290.7 -486.8,-261.1 -490.4,-256.2 -496.2,-271.8 	"/>
	<polygon class="st8" points="-506.2,-217.4 -502.2,-195.7 -468.7,-181 -482.8,-200 	"/>
	<polygon class="st7" points="-433.9,-196.3 -428.7,-174.2 -418.6,-151.4 -423.9,-175 	"/>
</g>
<g class="st1">
	<polygon class="st9" points="-160.8,30 -176.9,169.3 -135.3,142.7 -107.1,45.1 	"/>
	<polygon class="st4" points="-160.8,30 -128.5,-6.5 -107.1,45.1 	"/>
	<polygon class="st2" points="-160.8,30 -128.5,-6.5 -191.5,15.4 	"/>
	<polygon class="st3" points="-160.8,30 -176.9,169.3 -200.4,129.7 -191.5,15.4 	"/>
	<polygon class="st4" points="-200.4,129.7 -178,199 -176.9,169.3 	"/>
	<polygon class="st6" points="-176.9,169.3 -178,199 -135.3,142.7 	"/>
	<polygon class="st4" points="-147.9,159.3 -111.3,179.2 -102.9,164.6 	"/>
	<polygon class="st6" points="-102.9,164.6 -73.2,153.7 -111.3,179.2 	"/>
	<polygon class="st3" points="-102.9,164.6 -99.8,83.2 -115.3,73.7 -135.3,142.7 -147.9,159.3 	"/>
	<polygon class="st9" points="-102.9,164.6 -99.8,83.2 -65.9,77.5 -73.2,153.7 	"/>
	<polygon class="st2" points="-99.8,83.2 -105,23.7 -112.9,31.2 -107.1,45.1 -115.3,73.7 	"/>
	<polygon class="st4" points="-99.8,83.2 -65.9,77.5 -105,23.7 	"/>
	<polygon class="st7" points="-160.8,30 -167.5,66.9 -176,161.2 -163.5,68.9 	"/>
</g>
<g>
	<polygon class="st10" points="84.1,5.2 53.1,64.6 96.3,79.5 	"/>
	<polygon class="st11" points="84.1,5.2 111.2,73.7 120.2,117.6 96.3,79.5 	"/>
	<polygon class="st12" points="84.1,5.2 152.5,29.1 111.2,73.7 	"/>
	<polygon class="st12" points="53.1,64.6 77.6,130.5 119.5,138.2 120.2,117.6 96.3,79.5 	"/>
	<polygon class="st13" points="111.2,73.7 120.2,117.6 138.3,131.8 184.7,116.3 186.7,73.7 152.5,29.1 	"/>
	<polygon class="st10" points="119.5,138.2 120.2,117.6 138.3,131.8 	"/>
	<polygon class="st14" points="119.5,138.2 111.2,160.9 77.6,130.5 	"/>
	<polygon class="st10" points="77.6,130.5 57.6,161.5 111.2,160.9 	"/>
	<polygon class="st13" points="69.1,107.6 43.4,87.2 35,102.1 57.6,161.5 77.6,130.5 	"/>
	<polygon class="st11" points="35,102.1 12.4,100.8 26.6,145.4 57.6,161.5 	"/>
	<polygon class="st12" points="35,102.1 18.9,80.8 43.4,87.2 	"/>
	<polygon class="st10" points="35,102.1 18.9,80.8 12.4,100.8 	"/>
	<polygon class="st10" points="26.6,145.4 20.2,173.8 58.2,187.4 	"/>
	<polygon class="st13" points="26.6,145.4 57.6,161.5 58.2,187.4 	"/>
	<polygon class="st11" points="58.2,187.4 57.6,161.5 111.2,160.9 	"/>
	<polygon class="st14" points="58.2,187.4 135.9,182.4 111.2,160.9 	"/>
	<polygon class="st10" points="111.2,160.9 135.9,182.4 119.5,138.2 	"/>
	<polygon class="st11" points="119.5,138.2 138.3,131.8 135.9,182.4 	"/>
	<polygon class="st14" points="138.3,131.8 184.7,116.3 199.8,146.5 	"/>
	<polygon class="st11" points="184.7,116.3 186.7,73.7 203,51.5 214.3,65.7 199.8,146.5 	"/>
	<polygon class="st13" points="199.8,146.5 178.5,182 135.9,182.4 138.3,131.8 	"/>
	<polygon class="st10" points="199.8,146.5 203.6,186.9 178.5,182 	"/>
	<polygon class="st14" points="199.8,146.5 222,179.1 203.6,186.9 	"/>
	<polygon class="st13" points="214.3,65.7 236.9,64.1 222,179.1 199.8,146.5 	"/>
	<polygon class="st10" points="203,51.5 222,46.4 214.3,65.7 	"/>
	<polygon class="st12" points="222,46.4 214.3,65.7 236.9,64.1 	"/>
	<polygon class="st11" points="230,117.6 246.5,111.9 222,179.1 	"/>
	<polygon class="st13" points="246.5,111.9 248.2,136.5 222,179.1 	"/>
	<polygon class="st14" points="21.1,127.9 9.7,122.9 14.5,144.2 24.2,155.9 26.6,145.4 	"/>
	<polygon class="st15" points="100.3,85.7 113.4,110.4 120.2,117.6 110.9,100.2 	"/>
	<rect x="-94" y="-128.5" class="st10" width="72" height="64"/>
	<rect x="-6" y="-128.5" class="st16" width="78.1" height="64"/>
	<rect x="88.3" y="-128.5" class="st11" width="72.7" height="64"/>
	<rect x="187.5" y="-128.5" class="st12" width="64" height="64"/>
	<rect x="366" y="-128.5" class="st14" width="66" height="66"/>
	<g>
		<g id="XMLID_101_">
			<polygon class="st17" points="-68.65,17.7 -41.75,92 -54.55,107.2 -72.15,66.3 			"/>
			<polygon class="st18" points="-72.25,184.2 -113.05,219.7 -109.45,196.4 			"/>
			<polygon class="st19" points="-145.15,174.9 -113.05,219.7 -177.25,155.9 			"/>
			<polygon class="st18" points="-41.75,92 -55.75,169.9 -72.25,184.2 -72.15,121.8 -54.55,107.2 			"/>
			<polygon class="st20" points="-72.15,66.3 -54.55,107.2 -72.15,121.8 -87.25,96.3 			"/>
			<polygon class="st21" points="-113.05,-27.2 -72.15,66.3 -87.25,96.3 -125.85,96.3 -149.25,67.5 			"/>
			<polygon class="st17" points="-113.05,-27.2 -149.25,67.5 -167.95,67.5 -177.25,45.2 -165.55,16 			"/>
			<polygon class="st22" points="-149.25,67.5 -125.85,96.3 -141.05,109.1 -158.55,92 			"/>
			<polygon class="st21" points="-149.25,67.5 -158.55,92 -167.95,67.5 			"/>
			<polygon class="st23" points="-141.05,109.1 -145.15,174.9 -177.25,155.9 -158.55,92 			"/>
			<polygon class="st24" points="-109.45,196.4 -113.05,219.7 -145.15,174.9 			"/>
			<polygon class="st20" points="-167.95,67.5 -158.55,92 -177.25,155.9 -177.25,45.2 			"/>
			<polygon class="st25" points="-113.05,-27.2 -68.65,17.7 -72.15,66.3 			"/>
			<polygon class="st26" points="-87.25,96.3 -72.15,121.8 -72.25,184.2 -109.45,196.4 -145.15,174.9 -141.05,109.1 -125.85,96.3 
							"/>
		</g>
	</g>
	<rect x="272.5" y="-129.5" class="st27" width="66" height="66"/>
	<rect x="446.5" y="-128.5" class="st28" width="66" height="66"/>
	<rect x="519.82" y="-128.5" class="st29" width="66" height="66"/>
</g>
<g class="st1">
	<polygon class="st2" points="413.2,6.6 370.6,28.6 389,46.6 	"/>
	<polygon class="st3" points="413.2,6.6 434.7,56.2 389,46.6 	"/>
	<polygon class="st4" points="413.2,6.6 448.8,36.4 434.7,56.2 	"/>
	<polygon class="st5" points="413.2,6.6 445.2,14 448.8,36.4 	"/>
	<polygon class="st3" points="370.6,28.6 342,98.5 364.4,117.4 389,46.6 	"/>
	<polygon class="st4" points="389,46.6 434.7,56.2 431.2,136.3 364.4,117.4 	"/>
	<polygon class="st5" points="434.7,56.2 448.8,36.4 472.9,120.9 431.2,136.3 	"/>
	<polygon class="st9" points="448.8,36.4 478.2,52.3 472.9,120.9 	"/>
	<polygon class="st6" points="445.2,14 464.6,31.6 478.2,52.3 448.8,36.4 	"/>
	<polygon class="st3" points="464.6,31.6 494.9,11.4 502.8,35.2 478.2,52.3 	"/>
	<polygon class="st2" points="494.9,11.4 522.1,10.1 502.8,35.2 	"/>
	<polygon class="st3" points="502.8,35.2 533.1,41.3 522.1,10.1 	"/>
	<polygon class="st5" points="502.8,35.2 472.9,120.9 478.2,52.3 	"/>
	<polygon class="st4" points="502.8,35.2 533.1,41.3 519,116.9 472.9,120.9 	"/>
	<polygon class="st4" points="342,98.5 370.1,161.3 364.4,117.4 	"/>
	<polygon class="st5" points="364.4,117.4 370.1,161.3 422.4,175 431.2,136.3 	"/>
	<polygon class="st9" points="472.9,120.9 454.5,154.3 422.4,175 431.2,136.3 	"/>
	<polygon class="st5" points="454.5,154.3 483.4,153.4 519,116.9 472.9,120.9 	"/>
	<polygon class="st9" points="370.1,161.3 421.1,186 422.4,175 	"/>
	<polygon class="st6" points="421.1,186 454.5,154.3 422.4,175 	"/>
	<polygon class="st6" points="483.4,153.4 451.4,164 454.5,154.3 	"/>
	<polygon class="st9" points="451.4,164 446.6,161.8 454.5,154.3 	"/>
	<polygon class="st7" points="367.8,107.7 377.9,71 388.6,47.7 380.6,77.8 	"/>
</g>
<g class="st1">
	<polygon class="st5" points="-139.8,-304.1 -138,-241.6 -108.8,-254 	"/>
	<polygon class="st4" points="-139.8,-304.1 -156.2,-240.7 -150.9,-195.9 -138,-241.6 	"/>
	<polygon class="st2" points="-139.8,-304.1 -184.1,-263.3 -156.2,-240.7 	"/>
	<polygon class="st3" points="-184.1,-263.3 -170.4,-172.9 -159.8,-152.5 -150.9,-195.9 -156.2,-240.7 	"/>
	<polygon class="st4" points="-150.9,-195.9 -134.1,-152.1 -159.8,-152.5 	"/>
	<polygon class="st6" points="-150.9,-195.9 -138,-241.6 -108.8,-254 -101.3,-199.1 -134.1,-152.1 	"/>
	<polygon class="st5" points="-101.3,-199.1 -70.3,-256.7 -99.1,-281.1 -111.8,-258.9 -108.8,-254 	"/>
	<polygon class="st3" points="-99.1,-281.1 -98.6,-310.3 -110.6,-287.3 -111.8,-258.9 	"/>
	<polygon class="st2" points="-98.6,-310.3 -65.4,-335.6 -99.1,-281.1 	"/>
	<polygon class="st3" points="-65.4,-335.6 -70.3,-256.7 -99.1,-281.1 	"/>
	<polygon class="st2" points="-110.6,-287.3 -121.6,-274.8 -111.8,-258.9 	"/>
	<polygon class="st5" points="-65.4,-335.6 -53.4,-280.6 -70.3,-256.7 	"/>
	<polygon class="st6" points="-53.4,-280.6 -73.8,-208.8 -70.3,-256.7 	"/>
	<polygon class="st4" points="-70.3,-256.7 -73.8,-208.8 -103.5,-170.7 -101.3,-199.1 	"/>
	<polygon class="st5" points="-101.3,-199.1 -103.5,-170.7 -118.1,-142.7 -142.9,-125.9 -134.1,-152.1 	"/>
	<polygon class="st3" points="-118.1,-142.7 -81.8,-168 -73.8,-208.8 -103.5,-170.7 	"/>
	<polygon class="st6" points="-159.8,-152.5 -142.9,-125.9 -134.1,-152.1 	"/>
	<polygon class="st3" points="-201.2,-218.6 -209.3,-210.6 -191.6,-189.3 	"/>
	<polygon class="st5" points="-212.9,-247.8 -201.2,-218.6 -189.4,-233.2 	"/>
	<polygon class="st2" points="-201.2,-218.6 -209.3,-210.6 -212.9,-247.8 	"/>
	<polygon class="st6" points="-201.2,-218.6 -191.6,-189.3 -189.4,-233.2 	"/>
	<polygon class="st7" points="-154.6,-227.1 -152.1,-197.8 -155.8,-171.7 -150.6,-196.8 	"/>
</g>
<g class="st1">
	<polygon class="st5" points="-439.8,32.7 -394.6,127.2 -373.5,69.9 	"/>
	<polygon class="st4" points="-439.8,32.7 -452.9,119.6 -394.6,127.2 	"/>
	<polygon class="st2" points="-439.8,32.7 -462.9,64.4 -452.9,119.6 	"/>
	<polygon class="st5" points="-452.9,119.6 -385.3,184.7 -352.7,196.3 -394.6,127.2 	"/>
	<polygon class="st6" points="-394.6,127.2 -373.5,69.9 -346.7,161.1 -352.7,196.3 	"/>
	<polygon class="st4" points="-383.9,64.1 -381.8,-11.8 -333.1,53.5 	"/>
	<polygon class="st5" points="-383.9,64.1 -373.5,69.9 -350.7,147.5 -320.1,158.6 -333.1,53.5 	"/>
	<polygon class="st2" points="-383.9,64.1 -398.8,55.7 -381.8,-11.8 	"/>
	<polygon class="st5" points="-381.8,-11.8 -329.1,14.3 -333.1,53.5 	"/>
	<polygon class="st6" points="-333.1,53.5 -329.1,14.3 -310,121.9 -320.1,158.6 	"/>
	<polygon class="st9" points="-348.4,155.3 -314,175.2 -320.1,158.6 -350.7,147.5 	"/>
	<polygon class="st8" points="-314,175.2 -310,121.9 -320.1,158.6 	"/>
	<polygon class="st9" points="-346.7,161.1 -347.2,204.3 -352.7,196.3 	"/>
	<polygon class="st6" points="-347.2,204.3 -385.3,184.7 -352.7,196.3 	"/>
	<polygon class="st6" points="-457.4,94.8 -520.9,43.5 -511.4,69.6 -453.4,116.8 	"/>
	<polygon class="st5" points="-520.9,43.5 -562.1,26.4 -511.4,69.6 	"/>
	<polygon class="st2" points="-562.1,26.4 -539.9,77.2 -511.4,69.6 	"/>
	<polygon class="st8" points="-539.9,77.2 -487.8,106.8 -473.7,105.3 -452.9,119.6 -453.4,116.8 -511.4,69.6 	"/>
	<polygon class="st2" points="-487.8,106.8 -484.2,138 -458.7,148 	"/>
	<polygon class="st4" points="-487.8,106.8 -473.7,105.3 -458.7,148 	"/>
	<polygon class="st6" points="-458.7,148 -396.8,173.6 -452.9,119.6 -473.7,105.3 	"/>
	<polygon class="st8" points="-458.7,148 -484.2,138 -456.1,160.1 -427.7,160.8 	"/>
	<polygon class="st2" points="-456.1,160.1 -447.6,187.7 -426.5,185.7 	"/>
	<polygon class="st4" points="-456.1,160.1 -427.7,160.8 -426.5,185.7 	"/>
	<polygon class="st8" points="-447.6,187.7 -405.4,197.8 -393.4,198.3 -426.5,185.7 	"/>
	<polygon class="st6" points="-427.7,160.8 -426.5,185.7 -393.4,198.3 -394.9,184.2 	"/>
	<polygon class="st5" points="-427.7,160.8 -394.9,184.2 -385.3,184.7 -396.8,173.6 	"/>
	<polygon class="st7" points="-428.3,56.7 -397.6,125.5 -423.8,123.4 -395.4,129.6 -377.3,155.7 -393.3,123.5 	"/>
</g>
</svg>
